PathFileType	4	(X/Y/Z)	D:\Share\Shared_Data\Ergonomics\Sit To Stand Pertubation\S0\Free STS.trc
DataRate	CameraRate	NumFrames	NumMarkers	Units	OrigDataRate	OrigDataStartFrame	OrigNumFrames	
100	100	16	18	m	100	2312	231
Frame#	Time	R_Toe			R_ASIS			R_Pelvis			V_Sacral			L_Pelvis			L_ASIS			Clavical			R_Acromium			L_Acromium			Sternum			Torso			R_Thigh_Med			R_Thigh_Lat			R_Thigh			R_Shank_Med			R_Shank_Lat			R_Shank			R_Heel			
		X1	Y1	Z1	X2	Y2	Z2	X3	Y3	Z3	X4	Y4	Z4	X5	Y5	Z5	X6	Y6	Z6	X7	Y7	Z7	X8	Y8	Z8	X9	Y9	Z9	X10	Y10	Z10	X11	Y11	Z11	X12	Y12	Z12	X13	Y13	Z13	X14	Y14	Z14	X15	Y15	Z15	X16	Y16	Z16	X17	Y17	Z17	X18	Y18	Z18	

2312	9.54	0.38065845	0.044490597	0.13923453	0.22025471	0.8956723	0.15708125	0.11532944	0.96054437	0.20547971	-0.0076222558	0.99133649	-0.024465422	0.12561143	0.94203656	-0.20898158	0.22874126	0.88062097	-0.1567594	0.44590656	1.2476647	-0.014189951	0.39506744	1.337759	0.12383023	0.38768829	1.3414364	-0.15871573	0.43435019	1.1501584	-0.030313076	0.43159525	1.2029517	-0.13448865	0.34806528	0.47862686	0.055992973	0.34702884	0.50112997	0.1880712	0.36206052	0.65245355	0.1157409	0.25567761	0.096709641	0.10029395	0.20019386	0.090521118	0.19141164	0.2776434	0.3082641	0.20663754	0.15508701	0.046070496	0.14875082
2313	9.55	0.38065302	0.044471916	0.13931467	0.22333029	0.89948096	0.15712315	0.11819105	0.9636026	0.20534222	-0.0045434494	0.99396075	-0.024671488	0.1289117	0.94518555	-0.20910674	0.2321127	0.88424506	-0.15672862	0.44572467	1.2546829	-0.014265758	0.39397156	1.3442036	0.12393632	0.38658478	1.3479121	-0.15891827	0.43514621	1.1569862	-0.030318237	0.43170972	1.2097455	-0.13473041	0.34809583	0.47883228	0.055960098	0.34680222	0.50130688	0.1879425	0.36348508	0.65250751	0.11587109	0.25559929	0.096733597	0.10035251	0.20012323	0.090516182	0.19144954	0.27735068	0.30839362	0.20664252	0.15507893	0.046073212	0.14880243
2314	9.56	0.38064423	0.044453323	0.1394153	0.22639929	0.90331488	0.15713924	0.12103302	0.96662335	0.20515683	-0.0014730014	0.99652002	-0.024912365	0.13222237	0.94827637	-0.20924908	0.23549301	0.88788318	-0.15671701	0.44545447	1.2616412	-0.01432718	0.3927879	1.3505868	0.12403269	0.38539703	1.3543311	-0.15912527	0.43589395	1.1637815	-0.030340113	0.43175861	1.2165009	-0.13496524	0.34806979	0.47904565	0.055949718	0.34649088	0.50151593	0.18784047	0.36485596	0.65256287	0.11601439	0.25551382	0.096768578	0.1004198	0.2000415	0.090511719	0.19149301	0.27700232	0.30854276	0.20665422	0.15507193	0.046080509	0.14885699
2315	9.57	0.3806322	0.044434704	0.13953589	0.22947302	0.9071571	0.15713039	0.12385733	0.9696012	0.20492854	0.0015892055	0.99901093	-0.025185362	0.13553735	0.9513075	-0.20940765	0.23889771	0.89152979	-0.15673079	0.44508893	1.268535	-0.014379858	0.39151492	1.3569019	0.12412112	0.38412384	1.360687	-0.15933443	0.43659335	1.1705366	-0.030376842	0.43174606	1.2232131	-0.13518823	0.34796204	0.47925848	0.055951374	0.34610309	0.50175256	0.18775594	0.3661749	0.65261682	0.11616356	0.25542229	0.096814026	0.10049211	0.19995033	0.090508835	0.19153947	0.27660614	0.30870923	0.20666698	0.15506558	0.046092773	0.14891365
2316	9.58	0.38061737	0.044416122	0.13967439	0.23256801	0.91099188	0.15709825	0.1266666	0.97253156	0.20466286	0.0046432419	1.0014302	-0.025487337	0.13885217	0.95427814	-0.20958063	0.24234772	0.89518079	-0.15677489	0.44462518	1.2753585	-0.014426109	0.39014972	1.3631426	0.1242037	0.38276364	1.3669733	-0.15954294	0.43724149	1.1772441	-0.030425396	0.43167224	1.2298762	-0.13539403	0.34775552	0.47946536	0.05595417	0.34565005	0.50201089	0.18767728	0.36744446	0.65266547	0.11630933	0.25532639	0.096868835	0.10056567	0.19985179	0.090508545	0.19158566	0.27617264	0.30888986	0.20667468	0.15505981	0.046110455	0.14897089
2317	9.59	0.3806008	0.044397598	0.1398273	0.23569824	0.91480597	0.1570439	0.12946567	0.97540765	0.2043662	0.0076888223	1.0037745	-0.02581469	0.14216353	0.95718744	-0.20976657	0.24586102	0.89883136	-0.15685342	0.44406448	1.2821062	-0.014466234	0.38868884	1.3693018	0.1242824	0.38131497	1.3731827	-0.15974794	0.43783307	1.1838967	-0.030482147	0.43153473	1.2364832	-0.1355784	0.34744788	0.47966522	0.055947811	0.34514362	0.50228513	0.18759256	0.36866736	0.65270416	0.11644097	0.25522786	0.096931229	0.10063698	0.19974809	0.090511749	0.19162823	0.27571286	0.30908115	0.20667107	0.15505498	0.046133896	0.14902681
2318	9.6	0.38058386	0.044379013	0.1399902	0.23887149	0.91858972	0.15696664	0.13226239	0.97821912	0.20404628	0.010724938	1.0060408	-0.02616338	0.1454687	0.96003412	-0.2099649	0.24944481	0.90247522	-0.15696945	0.44341061	1.2887715	-0.014500379	0.38712988	1.3753722	0.12435854	0.37977652	1.3793082	-0.15994714	0.43836166	1.1904871	-0.030543652	0.43132996	1.2430264	-0.13573952	0.34704803	0.47985922	0.055923286	0.34459476	0.50257034	0.18749107	0.36984677	0.65272937	0.116547	0.25512805	0.096998932	0.10070315	0.19964149	0.090519196	0.19166475	0.2752366	0.30927969	0.20665013	0.15505157	0.046163315	0.14907948
2319	9.61	0.38056793	0.044360081	0.14015814	0.24208856	0.92233746	0.15686311	0.1350656	0.98095197	0.20371179	0.013749849	1.008226	-0.02652923	0.14876524	0.96281732	-0.21017619	0.25308972	0.90610193	-0.15712503	0.44266724	1.2953485	-0.014529307	0.3854715	1.3813456	0.12443272	0.37814813	1.3853418	-0.16013925	0.43882156	1.1970072	-0.030607048	0.43105423	1.2494983	-0.13587793	0.34657095	0.48004886	0.055873455	0.34401303	0.5028631	0.18736397	0.37098572	0.65273914	0.11661578	0.25502777	0.097069145	0.10076191	0.199534	0.090531448	0.19169382	0.27475162	0.30948257	0.20660675	0.15505026	0.046198669	0.14912679
2320	9.62	0.38055426	0.044340569	0.14032568	0.24534407	0.92604614	0.15672789	0.13788086	0.98359229	0.20337013	0.016761263	1.0103273	-0.026908276	0.15205038	0.96553662	-0.21040198	0.25676871	0.90969684	-0.15732112	0.44183743	1.3018308	-0.014554049	0.38371411	1.3872145	0.12450529	0.37643137	1.391275	-0.16032405	0.43920828	1.2034495	-0.030670017	0.43070435	1.2558894	-0.13599617	0.34603326	0.48023499	0.055793484	0.34340695	0.50316168	0.18720432	0.37208722	0.65273328	0.11663702	0.25492696	0.097138435	0.10081142	0.19942728	0.090548752	0.19171431	0.27426324	0.30968765	0.20653731	0.15505168	0.04623941	0.14916632
2321	9.63	0.38054337	0.044320633	0.14048741	0.2486279	0.92971173	0.15655594	0.14070746	0.98613123	0.20302496	0.01975647	1.012343	-0.027296825	0.15532033	0.96819263	-0.21064473	0.26044528	0.91324353	-0.15755779	0.44092349	1.3082112	-0.014575487	0.38186008	1.3929711	0.12457672	0.37462952	1.3970989	-0.16050237	0.43951855	1.2098057	-0.030730923	0.43027817	1.2621902	-0.13609837	0.34545218	0.48041876	0.055680836	0.34278391	0.50346564	0.18700697	0.37315454	0.6527132	0.11660316	0.25482481	0.097203262	0.10084998	0.19932222	0.090571167	0.1917251	0.27377451	0.3098934	0.20643973	0.15505605	0.046284557	0.1491956
2322	9.64	0.38053574	0.044300732	0.14063875	0.25192686	0.93332477	0.15634541	0.14353905	0.9885675	0.20267557	0.022732534	1.0142719	-0.027691504	0.1585701	0.9707865	-0.21090747	0.2640885	0.9167298	-0.15783363	0.43992847	1.314483	-0.014594437	0.37991348	1.3986079	0.12464768	0.37274719	1.4028038	-0.16067555	0.43975	1.216067	-0.030789221	0.42977493	1.2683901	-0.13618994	0.34484439	0.48060196	0.05553508	0.34214938	0.50377512	0.1867686	0.37419058	0.6526806	0.11651055	0.25472044	0.097260735	0.1008761	0.19921918	0.090598564	0.19172476	0.27328613	0.31009964	0.20631288	0.15506343	0.046332977	0.14921237
2323	9.65	0.38053156	0.044281387	0.1407765	0.25522661	0.93686987	0.15609857	0.14636678	0.99090466	0.2023185	0.02568659	1.0161134	-0.02808943	0.16179454	0.97331927	-0.211192	0.2676813	0.92015051	-0.15814557	0.43885614	1.3206392	-0.014611855	0.37787933	1.4041183	0.1247188	0.37078961	1.40838	-0.1608456	0.43990103	1.2222255	-0.030845556	0.42919534	1.2744786	-0.13627681	0.34422491	0.48078696	0.055357529	0.3415058	0.50409	0.18648753	0.3751969	0.65263672	0.11635943	0.25461363	0.097309273	0.10088849	0.19911794	0.090630699	0.19171217	0.27279599	0.3103071	0.2061559	0.15507376	0.046383507	0.14921492
2324	9.66	0.3805307	0.044263092	0.14089914	0.25851447	0.94033142	0.15581985	0.14918295	0.99314771	0.20195006	0.028616232	1.0178672	-0.028488331	0.16498915	0.97579053	-0.21149678	0.27121786	0.92350507	-0.15848889	0.43771069	1.3266722	-0.014628925	0.37576346	1.4094943	0.12479034	0.3687623	1.4138196	-0.16101489	0.43997104	1.2282742	-0.030901577	0.42854086	1.2804463	-0.13636464	0.34360568	0.48097708	0.055150452	0.34085229	0.50440997	0.18616391	0.37617358	0.65258191	0.11615321	0.25450504	0.09734864	0.10088633	0.19901801	0.090667328	0.19168661	0.2722998	0.310517	0.20596867	0.15508693	0.046435036	0.14920241
2325	9.67	0.38053268	0.044246296	0.14100687	0.2617821	0.94369769	0.15551443	0.15198253	0.99530035	0.20156781	0.031519745	1.019532	-0.028886444	0.16814958	0.97819727	-0.21181789	0.27469864	0.92679443	-0.15885809	0.43649512	1.3325759	-0.01464717	0.37357208	1.4147288	0.12486199	0.3666698	1.4191162	-0.16118642	0.43996088	1.2342072	-0.030959692	0.42781308	1.286285	-0.13645804	0.34299542	0.48117645	0.054915901	0.34018649	0.50473465	0.18579953	0.37711874	0.6525166	0.11589764	0.25439603	0.097379829	0.10086967	0.1989192	0.090708199	0.19164775	0.27179269	0.31073038	0.2057523	0.15510275	0.046486603	0.14917525
2326	9.68	0.38053683	0.0442314	0.14110114	0.26502594	0.9469621	0.15518819	0.15476265	0.99736511	0.20117142	0.034396008	1.0211061	-0.029282513	0.17127127	0.9805354	-0.21215108	0.27812634	0.9300188	-0.1592473	0.43521069	1.3383446	-0.014668474	0.37131131	1.4198149	0.12493272	0.36451532	1.4242666	-0.16136324	0.43987274	1.2400194	-0.031022921	0.42701334	1.2919893	-0.13656036	0.34240015	0.48138983	0.054654686	0.33950577	0.5050639	0.18539737	0.37802988	0.65244128	0.11559933	0.25428796	0.097404495	0.10083978	0.19882214	0.090753242	0.19159576	0.27127078	0.31094736	0.20550905	0.15512122	0.04653751	0.14913527
2327	9.69	0.38054291	0.044218525	0.14118393	0.26824548	0.95012305	0.15484692	0.15752151	0.99934406	0.20076195	0.037244205	1.0225883	-0.029676044	0.17434999	0.98279999	-0.21249342	0.28150391	0.9331778	-0.15965096	0.43385751	1.3439741	-0.014694851	0.368987	1.4247476	0.12500105	0.36230017	1.4292682	-0.16154834	0.43971002	1.2457067	-0.031094593	0.42614325	1.2975553	-0.1366738	0.34182361	0.48162137	0.054366135	0.33880832	0.50539856	0.18496126	0.37890417	0.65235638	0.11526441	0.2541825	0.097424538	0.10079894	0.19872824	0.090802666	0.19153119	0.27073282	0.31116757	0.20524211	0.15514256	0.046587391	0.14908545
